<svg xmlns="http://www.w3.org/2000/svg" width="25" height="23" viewBox="0 0 20 40" style="margin-top: 12px;" fill="none">
<path d="M12.8845 22.55L11.1816 21.0233C9.20475 19.2421 7.57039 17.7057 6.27857 16.4138C4.98674 15.122 3.95915 13.9623 3.1958 12.9347C2.43245 11.9071 1.89908 10.9627 1.5957 10.1015C1.29232 9.24028 1.14062 8.35949 1.14062 7.45913C1.14062 5.61926 1.75718 4.08277 2.99028 2.84966C4.22339 1.61655 5.75988 1 7.59975 1C8.61755 1 9.58642 1.2153 10.5064 1.64591C11.4263 2.07652 12.219 2.68329 12.8845 3.46621C13.55 2.68329 14.3427 2.07652 15.2626 1.64591C16.1826 1.2153 17.1514 1 18.1692 1C20.0091 1 21.5456 1.61655 22.7787 2.84966C24.0118 4.08277 24.6284 5.61926 24.6284 7.45913C24.6284 8.35949 24.4767 9.24028 24.1733 10.1015C23.8699 10.9627 23.3365 11.9071 22.5732 12.9347C21.8098 13.9623 20.7822 15.122 19.4904 16.4138C18.1986 17.7057 16.5642 19.2421 14.5874 21.0233L12.8845 22.55ZM12.8845 19.3792C14.7635 17.6959 16.3098 16.2523 17.5233 15.0486C18.7369 13.8449 19.6959 12.7977 20.4006 11.9071C21.1052 11.0165 21.5945 10.2238 21.8686 9.52899C22.1426 8.83414 22.2796 8.14419 22.2796 7.45913C22.2796 6.28474 21.8881 5.30609 21.1052 4.52316C20.3223 3.74024 19.3436 3.34877 18.1692 3.34877C17.2493 3.34877 16.3979 3.60812 15.6149 4.12681C14.832 4.64549 14.2938 5.30609 14.0002 6.10858H11.7688C11.4752 5.30609 10.937 4.64549 10.154 4.12681C9.37112 3.60812 8.51969 3.34877 7.59975 3.34877C6.42537 3.34877 5.44671 3.74024 4.66379 4.52316C3.88086 5.30609 3.4894 6.28474 3.4894 7.45913C3.4894 8.14419 3.62641 8.83414 3.90043 9.52899C4.17446 10.2238 4.66379 11.0165 5.36842 11.9071C6.07305 12.7977 7.03213 13.8449 8.24567 15.0486C9.4592 16.2523 11.0055 17.6959 12.8845 19.3792Z" fill="currentColor" stroke="white" stroke-width="0.5"/>
</svg>